<svg width="30.000000" height="23.000000" viewBox="0 0 30 23" fill="none" xmlns="http://www.w3.org/2000/svg" xmlns:xlink="http://www.w3.org/1999/xlink">
	<desc>
			Created with Pixso.
	</desc>
	<defs/>
	<path id="credit-card" d="M25.9814 23L4.01904 23C1.80273 23 0 21.2046 0 19L0 4C0 1.79443 1.80273 0 4.01904 0L25.981 0C28.196 0 30 1.79443 30 4L30 19C30.0007 21.2051 28.1973 23 25.9814 23ZM4.01904 1.14307C2.43555 1.14307 1.14844 2.42383 1.14844 4L1.14844 19C1.14844 20.5757 2.43555 21.8569 4.01904 21.8569L25.981 21.8569C27.5637 21.8569 28.8516 20.5757 28.8516 19L28.8516 4C28.8516 2.42383 27.5637 1.14307 25.981 1.14307L4.01904 1.14307ZM20.7036 3.35986C22.1362 3.35986 23.2979 4.51514 23.2979 5.94141C23.2979 7.36768 22.1367 8.52393 20.7036 8.52393C19.2708 8.52393 18.1096 7.36768 18.1096 5.94141C18.1096 4.51514 19.2712 3.35986 20.7036 3.35986ZM24.3203 3.35986C25.7529 3.35986 26.915 4.51514 26.915 5.94141C26.915 7.36768 25.7537 8.52393 24.3203 8.52393C22.8872 8.52393 21.7263 7.36768 21.7263 5.94141C21.7263 4.51514 22.8879 3.35986 24.3203 3.35986ZM3.08618 16.334L7.86841 16.334L7.86841 18.0483L3.08618 18.0483L3.08618 16.334ZM9.43457 16.334L14.2175 16.334L14.2175 18.0483L9.43457 18.0483L9.43457 16.334ZM15.782 16.334L20.5659 16.334L20.5659 18.0483L15.782 18.0483L15.782 16.334ZM22.1306 16.334L26.9146 16.334L26.9146 18.0483L22.1306 18.0483L22.1306 16.334ZM3.08618 3.36035L12.1265 3.36035L12.1265 5.07471L3.08618 5.07471L3.08618 3.36035ZM3.08618 6.76221L7.86938 6.76221L7.86938 8.47656L3.08618 8.47656L3.08618 6.76221Z" fill="#292929" fill-opacity="1.000000" fill-rule="evenodd"/>
</svg>
