<svg width="22.000000" height="32.000000" viewBox="0 0 22 32" fill="none" xmlns="http://www.w3.org/2000/svg" xmlns:xlink="http://www.w3.org/1999/xlink">
	<desc>
			Created with Pixso.
	</desc>
	<defs/>
	<rect id="icon-marker" width="22.000000" height="32.000000" fill="#FFFFFF" fill-opacity="0"/>
	<path id="pin" d="M0 10.6667C0 4.78516 4.93457 0 11 0C17.0654 0 22 4.78516 22 10.6666C22 12.4323 21.5449 14.183 20.6826 15.7305L11.6016 31.6562C11.4805 31.8685 11.2505 32 11 32C10.7495 32 10.5195 31.8685 10.3984 31.6562L1.3208 15.7357C0.455078 14.183 0 12.4324 0 10.6667ZM11 29.9558L19.4761 15.0905C20.2271 13.7435 20.625 12.2115 20.625 10.6667C20.625 5.52026 16.3071 1.33337 11 1.33337C5.69287 1.33337 1.375 5.52014 1.375 10.6667C1.375 12.2117 1.77295 13.7435 2.52734 15.0964L11 29.9558ZM5.5 10.6666C5.5 7.72583 7.96729 5.33325 11 5.33325C14.0327 5.33325 16.5 7.72595 16.5 10.6666C16.5 13.6074 14.0327 16 11 16C7.96729 16 5.5 13.6074 5.5 10.6666ZM6.875 10.6666C6.875 12.8724 8.7251 14.6666 11 14.6666C13.2749 14.6666 15.125 12.8723 15.125 10.6666C15.125 8.46094 13.2749 6.66663 11 6.66663C8.7251 6.66663 6.875 8.46094 6.875 10.6666Z" fill="#F1CDB3" fill-opacity="1.000000" fill-rule="evenodd"/>
</svg>
