<svg width="40.000000" height="32.000000" viewBox="0 0 40 32" fill="none" xmlns="http://www.w3.org/2000/svg" xmlns:xlink="http://www.w3.org/1999/xlink">
	<desc>
			Created with Pixso.
	</desc>
	<defs/>
	<rect id="icon-email" width="40.000000" height="32.000000" fill="#FFFFFF" fill-opacity="0"/>
	<path id="mail" d="M0.685059 3L39.3149 3C39.4966 3 39.6709 3.07324 39.7993 3.20361C39.9277 3.33398 40 3.51086 40 3.69519L40 28.3048C40 28.4891 39.9277 28.666 39.7993 28.7964C39.6709 28.9268 39.4966 29 39.3149 29L0.685059 29C0.503418 29 0.329102 28.9268 0.200684 28.7964C0.0722656 28.666 0 28.4891 0 28.3048L0 3.69519C0 3.51086 0.0722656 3.33398 0.200684 3.20361C0.329102 3.07324 0.503418 3 0.685059 3ZM30.4053 11.4795C30.4707 11.5415 30.5347 11.6024 30.5977 11.6608L37.6748 4.39038L2.32471 4.39038L19.9995 22.5464L22.7773 19.693C22.5474 19.0496 22.6978 18.3556 22.833 17.7335C22.9082 17.3866 22.9795 17.0587 22.9795 16.7821C22.9795 16.5055 22.9082 16.1776 22.833 15.8307C22.6768 15.1134 22.5 14.3004 22.9106 13.5797C23.3335 12.8381 24.1274 12.5876 24.8281 12.3666C25.1519 12.2645 25.4575 12.168 25.6763 12.0397C25.8794 11.9202 26.1045 11.7061 26.3428 11.4795C26.8574 10.9895 27.498 10.3798 28.374 10.3798C29.2495 10.3798 29.8906 10.9895 30.4053 11.4795ZM33.8369 19.9846C33.6226 20.3612 33.3115 20.6108 32.9663 20.7946L38.6299 26.6123L38.6299 5.38733L31.856 12.3463L31.9199 12.3666C32.6201 12.5876 33.4141 12.8381 33.8369 13.5797C34.248 14.3004 34.0713 15.1134 33.915 15.8307C33.8398 16.1776 33.7686 16.5055 33.7686 16.7821C33.7686 17.0587 33.8398 17.3866 33.915 17.7335C34.0713 18.4508 34.248 19.2639 33.8369 19.9846ZM1.37012 26.6116L11.7007 16L1.37012 5.38818L1.37012 26.6116ZM32.6514 19.2882C32.7954 19.0355 32.6846 18.526 32.5776 18.0332C32.4893 17.6287 32.3984 17.2102 32.3984 16.782C32.3984 16.3536 32.4893 15.9354 32.5776 15.5309C32.6846 15.0381 32.7954 14.5286 32.6514 14.2758C32.4966 14.0045 31.9966 13.8467 31.5132 13.6941C31.1318 13.5739 30.7373 13.4493 30.3857 13.243C30.0459 13.0435 29.7524 12.764 29.4683 12.4938C29.0771 12.1217 28.708 11.7701 28.374 11.7701C28.04 11.7701 27.6704 12.1217 27.2798 12.4938C26.9956 12.764 26.7017 13.0435 26.3623 13.243C26.0107 13.4495 25.6162 13.574 25.2349 13.6942C24.7515 13.8468 24.2515 14.0046 24.0967 14.2759C23.9526 14.5288 24.0635 15.0383 24.1704 15.531L24.1704 15.5311C24.2583 15.9357 24.3491 16.354 24.3491 16.7821C24.3491 17.2103 24.2583 17.6285 24.1704 18.0331L24.1704 18.0332C24.0635 18.526 23.9526 19.0355 24.0967 19.2882C24.2515 19.5596 24.7515 19.7173 25.2349 19.8699C25.6162 19.9904 26.0107 20.1147 26.3623 20.3212C26.7017 20.5205 26.9956 20.8002 27.2798 21.0704C27.6704 21.4425 28.04 21.7939 28.374 21.7939C28.708 21.7939 29.0771 21.4426 29.4683 21.0704C29.7524 20.8002 30.0459 20.5206 30.3857 20.3212C30.7373 20.1147 31.1318 19.9902 31.5132 19.8699C31.9966 19.7173 32.4966 19.5596 32.6514 19.2882ZM24.8867 16.782C24.8867 14.8302 26.4512 13.2423 28.374 13.2423C30.2969 13.2423 31.8613 14.8302 31.8613 16.782C31.8613 18.7336 30.2969 20.3215 28.374 20.3215C26.4512 20.3215 24.8867 18.7336 24.8867 16.782ZM26.2563 16.782C26.2563 17.9669 27.2065 18.9312 28.374 18.9312C29.5415 18.9312 30.4917 17.9669 30.4917 16.782C30.4917 15.5969 29.5415 14.6328 28.374 14.6328C27.2065 14.6328 26.2563 15.5969 26.2563 16.782ZM19.5122 24.0242L12.6636 16.989L2.32422 27.6094L37.6748 27.6094L31.5503 21.3179C31.3691 21.3806 31.2041 21.4465 31.0718 21.5244C30.8682 21.644 30.6436 21.8579 30.4053 22.0846C29.8906 22.5746 29.2495 23.1843 28.374 23.1843C27.498 23.1843 26.8574 22.5746 26.3428 22.0846C26.1045 21.858 25.8794 21.644 25.6763 21.5245C25.4575 21.3961 25.1519 21.2998 24.8281 21.1976C24.4497 21.0781 24.0439 20.9493 23.6841 20.7397L20.4868 24.0242C20.4233 24.0896 20.3472 24.1416 20.2637 24.177C20.1802 24.2125 20.0903 24.2307 19.9995 24.2307C19.9092 24.2307 19.8193 24.2125 19.7354 24.177C19.6519 24.1416 19.5762 24.0896 19.5122 24.0242Z" fill="#F1CDB3" fill-opacity="1.000000" fill-rule="evenodd"/>
</svg>
