<svg width="40.000000" height="32.000000" viewBox="0 0 40 32" fill="none" xmlns="http://www.w3.org/2000/svg" xmlns:xlink="http://www.w3.org/1999/xlink">
	<desc>
			Created with Pixso.
	</desc>
	<defs/>
	<rect id="icon-phone" width="39.999996" height="32.000000" fill="#FFFFFF" fill-opacity="0"/>
	<path id="phone" d="M37.5103 2.90491L39.9463 8.89539C40.0132 9.06042 40.0176 9.24512 39.959 9.41345L38.9849 12.209C38.9282 12.3713 38.8164 12.5074 38.6699 12.5924C38.5234 12.6774 38.3521 12.7056 38.187 12.6718L28.9307 10.7748C28.7915 10.7463 28.6641 10.675 28.5649 10.5707C28.4663 10.4663 28.4004 10.3335 28.377 10.1901L27.5752 5.32593C23.1636 4.18994 16.8364 4.18994 12.4243 5.32593L11.623 10.1899C11.5991 10.3334 11.5337 10.4662 11.4346 10.5706C11.3359 10.6749 11.2085 10.7462 11.0693 10.7747L1.81299 12.6718C1.64795 12.7056 1.47656 12.6775 1.33008 12.5925C1.18359 12.5074 1.07178 12.3713 1.01514 12.2089L0.0410156 9.41333C-0.0180664 9.245 -0.0131836 9.06042 0.0541992 8.89539L2.48975 2.90491C2.53125 2.80249 2.5957 2.71143 2.67725 2.63867C2.75928 2.56592 2.85645 2.51367 2.96094 2.48584L5.88916 1.70801C14.4609 -0.569336 25.5386 -0.569336 34.1108 1.70801L37.0391 2.48584C37.1436 2.51367 37.2407 2.56592 37.3228 2.63867C37.4043 2.71143 37.4688 2.80249 37.5103 2.90491ZM11.2881 4.26782C11.3779 4.16638 11.4937 4.09314 11.6221 4.05676C16.3984 2.70618 23.6016 2.70618 28.3779 4.05676C28.5068 4.09314 28.6226 4.16638 28.7119 4.26782C28.8013 4.36938 28.8604 4.49487 28.8828 4.62964L29.1523 6.26453L38.1401 8.18958L36.3501 3.78711L33.7593 3.09875C25.4009 0.878174 14.5991 0.878296 6.24072 3.09875L3.6499 3.78711L1.85986 8.18958L10.8481 6.26453L11.1172 4.62964C11.1396 4.49487 11.1987 4.36938 11.2881 4.26782ZM33.0996 12.7643C33.1948 12.8612 33.2612 12.9841 33.29 13.1185L36.5322 28.0878C36.543 28.1389 36.5488 28.1912 36.5488 28.2434L36.5488 31.2816C36.5488 31.4722 36.4751 31.6549 36.3433 31.7896C36.2119 31.9243 36.0337 32 35.8477 32L4.15234 32C3.96631 32 3.78809 31.9243 3.65674 31.7896C3.52539 31.6549 3.45117 31.4722 3.45117 31.2816L3.45117 28.2434C3.45117 28.191 3.45703 28.1389 3.46777 28.0878L6.70996 13.1185C6.73926 12.9841 6.80518 12.8612 6.90039 12.7643C6.99609 12.6674 7.1167 12.6005 7.24805 12.5718L12.0225 11.526L12.6235 7.51392C12.6489 7.34436 12.7329 7.18958 12.8599 7.07776C12.9873 6.96606 13.1489 6.90454 13.3164 6.90454L15.186 6.90454L15.186 5.96399C15.186 5.56726 15.5 5.24561 15.8872 5.24561C16.2744 5.24561 16.5884 5.56726 16.5884 5.96399L16.5884 6.90454L23.4121 6.90454L23.4121 5.96399C23.4121 5.56726 23.7256 5.24561 24.1128 5.24561C24.5 5.24561 24.814 5.56726 24.814 5.96399L24.814 6.90454L26.6836 6.90454C26.8511 6.90454 27.0132 6.96606 27.1401 7.07776C27.2671 7.18958 27.3511 7.34436 27.3765 7.51392L27.9775 11.526L32.752 12.5718C32.8838 12.6005 33.0039 12.6674 33.0996 12.7643ZM1.63184 9.7063L2.13184 11.1412L10.3208 9.46289L10.5972 7.78601L1.63184 9.7063ZM29.6792 9.46289L37.8682 11.1412L38.3682 9.7063L29.4028 7.78601L29.6792 9.46289ZM12.7886 12.8273L7.98145 13.8802L5.02588 27.525L34.9741 27.525L32.019 13.8802L27.2114 12.8273C27.0723 12.7969 26.9458 12.7238 26.8481 12.6178C26.7505 12.5117 26.6865 12.3778 26.665 12.2338L26.082 8.34131L13.9185 8.34131L13.335 12.2338C13.3135 12.3778 13.2495 12.5117 13.1519 12.6178C13.0542 12.7238 12.9277 12.7969 12.7886 12.8273ZM20 26.1605C24.1494 26.1605 27.5249 22.7017 27.5249 18.45C27.5249 14.1982 24.1494 10.7394 20 10.7394C15.8511 10.7394 12.4751 14.1982 12.4751 18.45C12.4751 22.7017 15.8511 26.1605 20 26.1605ZM20 12.1761C23.376 12.1761 26.1226 14.9905 26.1226 18.45C26.1226 21.9094 23.376 24.7238 20 24.7238C16.624 24.7238 13.8774 21.9094 13.8774 18.45C13.8774 14.9905 16.624 12.1761 20 12.1761ZM22.6689 18.4497C22.6689 19.9578 21.4717 21.1847 20 21.1847C18.5283 21.1847 17.3311 19.9578 17.3311 18.4497C17.3311 16.9415 18.5283 15.7146 20 15.7146C21.4717 15.7146 22.6689 16.9415 22.6689 18.4497ZM21.2671 18.4497C21.2671 17.7338 20.6987 17.1514 20 17.1514C19.3013 17.1514 18.7329 17.7339 18.7329 18.4497C18.7329 19.1655 19.3013 19.7479 20 19.7479C20.6987 19.7479 21.2671 19.1655 21.2671 18.4497ZM9.11133 28.9618L4.85352 28.9618L4.85352 30.5632L8.2085 30.5632L9.11133 28.9618ZM10.8936 30.5632L11.7964 28.9618L10.731 28.9618L9.82764 30.5632L10.8936 30.5632ZM28.6719 28.9618L13.416 28.9618L12.5132 30.5632L27.769 30.5632L28.6719 28.9618ZM30.2915 28.9618L29.3887 30.5632L35.1465 30.5632L35.1465 28.9618L30.2915 28.9618Z" fill="#F1CDB3" fill-opacity="1.000000" fill-rule="evenodd"/>
</svg>
